<svg width="16" height="17" viewBox="0 0 16 17" fill="none" xmlns="http://www.w3.org/2000/svg">
<path d="M8.82759 17C3.5982 17 0 13.4309 0 8.54696V8.5C0 3.82735 3.71814 0 8.8036 0C11.8021 0 13.6732 0.798342 15.4003 2.25414L13.0735 5.00138C11.8021 3.94475 10.6027 3.33425 8.68366 3.33425C5.997 3.33425 3.86207 5.65884 3.86207 8.45304V8.5C3.86207 11.5055 5.97301 13.7127 8.94753 13.7127C10.3148 13.7127 11.4903 13.384 12.4258 12.7265V10.3785H8.70765V7.25552H16V14.3936C14.2729 15.826 11.8981 17 8.82759 17Z" fill="white"/>
</svg>
