<svg width="66" height="72" viewBox="0 0 66 72" fill="none" xmlns="http://www.w3.org/2000/svg">
<path d="M41.5 67.5C41.5 68.4233 40.6443 69.4254 38.8662 70.2256C37.1348 71.0047 34.7075 71.5 32 71.5C29.2925 71.5 26.8652 71.0047 25.1338 70.2256C23.3557 69.4254 22.5 68.4233 22.5 67.5C22.5 66.5768 23.3557 65.5747 25.1338 64.7744C26.8652 63.9953 29.2925 63.5 32 63.5C34.7075 63.5 37.1348 63.9953 38.8662 64.7744C40.6443 65.5746 41.5 66.5767 41.5 67.5Z" stroke="#D9C4A2"/>
<path d="M41.5 4.5C41.5 5.42326 40.6443 6.42536 38.8662 7.22559C37.1348 8.00472 34.7075 8.50001 32 8.50001C29.2925 8.50001 26.8652 8.00473 25.1338 7.2256C23.3557 6.42538 22.5 5.42327 22.5 4.50002C22.5 3.57676 23.3557 2.57465 25.1338 1.77443C26.8652 0.995291 29.2925 0.50001 32 0.500008C34.7075 0.500006 37.1348 0.995283 38.8662 1.77442C40.6443 2.57464 41.5 3.57674 41.5 4.5Z" stroke="#D9C4A2"/>
<path d="M22.5 67.5C22.5 68.4233 21.6443 69.4254 19.8662 70.2256C18.1348 71.0047 15.7075 71.5 13 71.5C10.2925 71.5 7.86521 71.0047 6.13379 70.2256C4.35574 69.4254 3.5 68.4233 3.5 67.5C3.5 66.5768 4.35574 65.5747 6.13379 64.7744C7.8652 63.9953 10.2925 63.5 13 63.5C15.7075 63.5 18.1348 63.9953 19.8662 64.7744C21.6443 65.5746 22.5 66.5767 22.5 67.5Z" stroke="#D9C4A2"/>
<path d="M22.5 4.5C22.5 5.42326 21.6443 6.42536 19.8662 7.22559C18.1348 8.00472 15.7075 8.50001 13 8.50001C10.2925 8.50001 7.86521 8.00473 6.13379 7.2256C4.35574 6.42538 3.5 5.42327 3.5 4.50002C3.5 3.57676 4.35574 2.57465 6.13379 1.77443C7.8652 0.995291 10.2925 0.50001 13 0.500008C15.7075 0.500006 18.1348 0.995283 19.8662 1.77442C21.6443 2.57464 22.5 3.57674 22.5 4.5Z" stroke="#D9C4A2"/>
<path d="M61.5 67.5C61.5 68.4233 60.6443 69.4254 58.8662 70.2256C57.1348 71.0047 54.7075 71.5 52 71.5C49.2925 71.5 46.8652 71.0047 45.1338 70.2256C43.3557 69.4254 42.5 68.4233 42.5 67.5C42.5 66.5768 43.3557 65.5747 45.1338 64.7744C46.8652 63.9953 49.2925 63.5 52 63.5C54.7075 63.5 57.1348 63.9953 58.8662 64.7744C60.6443 65.5746 61.5 66.5767 61.5 67.5Z" stroke="#D9C4A2"/>
<path d="M61.5 4.5C61.5 5.42326 60.6443 6.42536 58.8662 7.22559C57.1348 8.00473 54.7075 8.50001 52 8.50001C49.2925 8.50001 46.8652 8.00473 45.1338 7.2256C43.3557 6.42538 42.5 5.42327 42.5 4.50002C42.5 3.57676 43.3557 2.57465 45.1338 1.77443C46.8652 0.995292 49.2925 0.500011 52 0.500008C54.7075 0.500006 57.1348 0.995283 58.8662 1.77442C60.6443 2.57464 61.5 3.57674 61.5 4.5Z" stroke="#D9C4A2"/>
<path d="M61.5 6.5C62.4233 6.5 63.4254 7.35574 64.2256 9.13379C65.0047 10.8652 65.5 13.2925 65.5 16C65.5 18.7075 65.0047 21.1348 64.2256 22.8662C63.4254 24.6443 62.4233 25.5 61.5 25.5C60.5767 25.5 59.5746 24.6443 58.7744 22.8662C57.9953 21.1348 57.5 18.7075 57.5 16C57.5 13.2925 57.9953 10.8652 58.7744 9.13379C59.5746 7.35574 60.5767 6.5 61.5 6.5Z" stroke="#D9C4A2"/>
<path d="M4.5 6.5C5.42326 6.5 6.42536 7.35574 7.22559 9.13379C8.00472 10.8652 8.5 13.2925 8.5 16C8.5 18.7075 8.00472 21.1348 7.22559 22.8662C6.42536 24.6443 5.42326 25.5 4.5 25.5C3.57674 25.5 2.57464 24.6443 1.77441 22.8662C0.995279 21.1348 0.5 18.7075 0.5 16C0.5 13.2925 0.995279 10.8652 1.77441 9.13379C2.57464 7.35574 3.57674 6.5 4.5 6.5Z" stroke="#D9C4A2"/>
<path d="M61.5 26.5C62.4233 26.5 63.4254 27.3557 64.2256 29.1338C65.0047 30.8652 65.5 33.2925 65.5 36C65.5 38.7075 65.0047 41.1348 64.2256 42.8662C63.4254 44.6443 62.4233 45.5 61.5 45.5C60.5767 45.5 59.5746 44.6443 58.7744 42.8662C57.9953 41.1348 57.5 38.7075 57.5 36C57.5 33.2925 57.9953 30.8652 58.7744 29.1338C59.5746 27.3557 60.5767 26.5 61.5 26.5Z" stroke="#D9C4A2"/>
<path d="M61.5 46.5C62.4233 46.5 63.4254 47.3557 64.2256 49.1338C65.0047 50.8652 65.5 53.2925 65.5 56C65.5 58.7075 65.0047 61.1348 64.2256 62.8662C63.4254 64.6443 62.4233 65.5 61.5 65.5C60.5767 65.5 59.5746 64.6443 58.7744 62.8662C57.9953 61.1348 57.5 58.7075 57.5 56C57.5 53.2925 57.9953 50.8652 58.7744 49.1338C59.5746 47.3557 60.5767 46.5 61.5 46.5Z" stroke="#D9C4A2"/>
<path d="M4.5 26.5C5.42326 26.5 6.42536 27.3557 7.22559 29.1338C8.00472 30.8652 8.5 33.2925 8.5 36C8.5 38.7075 8.00472 41.1348 7.22559 42.8662C6.42536 44.6443 5.42326 45.5 4.5 45.5C3.57674 45.5 2.57464 44.6443 1.77441 42.8662C0.995279 41.1348 0.5 38.7075 0.5 36C0.5 33.2925 0.995279 30.8652 1.77441 29.1338C2.57464 27.3557 3.57674 26.5 4.5 26.5Z" stroke="#D9C4A2"/>
<path d="M4.5 46.5C5.42326 46.5 6.42536 47.3557 7.22559 49.1338C8.00472 50.8652 8.5 53.2925 8.5 56C8.5 58.7075 8.00472 61.1348 7.22559 62.8662C6.42536 64.6443 5.42326 65.5 4.5 65.5C3.57674 65.5 2.57464 64.6443 1.77441 62.8662C0.995279 61.1348 0.5 58.7075 0.5 56C0.5 53.2925 0.995279 50.8652 1.77441 49.1338C2.57464 47.3557 3.57674 46.5 4.5 46.5Z" stroke="#D9C4A2"/>
</svg>
