<svg width="17" height="16" viewBox="0 0 17 16" fill="none" xmlns="http://www.w3.org/2000/svg">
<path fill-rule="evenodd" clip-rule="evenodd" d="M13.5801 0H3.58008C1.92324 0 0.580078 1.34316 0.580078 3V13C0.580078 14.6568 1.92324 16 3.58008 16H13.5801C15.2369 16 16.5801 14.6568 16.5801 13V3C16.5801 1.34316 15.2369 0 13.5801 0ZM13.1738 8.61684H11.6769V14.1579H9.17587V8.61684H8.20534V6.74947H9.17587V5.56C9.17587 4.00211 9.82429 3.07579 11.6601 3.07579H13.5211V4.93474H12.439C11.7232 4.93474 11.6769 5.20211 11.6769 5.69895L11.6748 6.74737H13.3759L13.1717 8.61474L13.1738 8.61684Z" fill="#E4D4BB"/>
</svg>
