<svg width="16" height="16" viewBox="0 0 16 16" fill="none" xmlns="http://www.w3.org/2000/svg">
<path d="M0 11.2821C0 13.887 2.11303 16 4.71795 16H11.2821C13.887 16 16 13.887 16 11.2821V4.71795C16 2.11303 13.887 0 11.2821 0H4.71795C2.11303 0 0 2.11303 0 4.71795V11.2821ZM12.3077 2.87179C12.8822 2.87179 13.3333 3.32291 13.3333 3.89744C13.3333 4.47196 12.8822 4.92308 12.3077 4.92308C11.7332 4.92308 11.2821 4.47196 11.2821 3.89744C11.2821 3.32291 11.7332 2.87179 12.3077 2.87179ZM8 4.10256C10.1538 4.10256 11.8974 5.84615 11.8974 8C11.8974 10.1538 10.1538 11.8974 8 11.8974C5.84615 11.8974 4.10256 10.1538 4.10256 8C4.10256 5.84615 5.84615 4.10256 8 4.10256Z" fill="#E4D4BB"/>
<path d="M10.436 8.00119C10.436 9.34588 9.34588 10.436 8.00119 10.436C6.6565 10.436 5.56641 9.34588 5.56641 8.00119C5.56641 6.6565 6.6565 5.56641 8.00119 5.56641C9.34588 5.56641 10.436 6.6565 10.436 8.00119Z" fill="#E4D4BB"/>
</svg>
