<svg width="793" height="318" viewBox="0 0 793 318" fill="none" xmlns="http://www.w3.org/2000/svg">
<path d="M18.8711 317.484L29.0711 293.514H33.8991L44.0991 317.484H38.6251L36.4491 312.146H26.3851L24.2091 317.484H18.8711ZM28.2551 307.522H34.5791L31.4171 299.804L28.2551 307.522Z" fill="#00F19D"/>
<path d="M81.8797 317.484V298.512H74.6377V293.684H94.3577V298.512H87.1157V317.484H81.8797Z" fill="#00F19D"/>
<path d="M171.818 317.484V293.684H177.054V312.724H188.92V317.484H171.818Z" fill="#00F19D"/>
<path d="M222.449 317.484L232.649 293.514H237.477L247.677 317.484H242.203L240.027 312.146H229.963L227.787 317.484H222.449ZM231.833 307.522H238.157L234.995 299.804L231.833 307.522Z" fill="#00F19D"/>
<path d="M282.97 317.484V293.684H288.206V304.088L297.794 293.684H304.22L294.496 303.782L304.628 317.484H298.338L290.96 307.352L288.206 310.208V317.484H282.97Z" fill="#00F19D"/>
<path d="M339.426 317.484V293.684H357.378V298.342H344.628V303.17H355.848V307.828H344.628V312.826H357.548V317.484H339.426Z" fill="#00F19D"/>
<path d="M441.043 317.824C437.337 317.824 434.889 316.192 433.257 314.254L436.555 310.582C437.915 312.078 439.241 312.962 440.907 312.962C442.913 312.962 444.103 311.772 444.103 309.018V293.684H449.475V309.256C449.475 312.112 448.693 314.152 447.231 315.614C445.769 317.076 443.627 317.824 441.043 317.824Z" fill="#00F19D"/>
<path d="M483.545 317.484L493.745 293.514H498.573L508.773 317.484H503.299L501.123 312.146H491.059L488.883 317.484H483.545ZM492.929 307.522H499.253L496.091 299.804L492.929 307.522Z" fill="#00F19D"/>
<path d="M553.691 317.892C546.687 317.892 541.485 312.486 541.485 305.652V305.584C541.485 298.818 546.585 293.276 553.895 293.276C558.349 293.276 561.103 294.772 563.279 296.948L559.947 300.79C558.077 299.124 556.275 298.104 553.861 298.104C549.849 298.104 546.959 301.436 546.959 305.516V305.584C546.959 309.664 549.781 313.064 553.861 313.064C556.581 313.064 558.247 312.01 560.117 310.276L563.449 313.642C561.001 316.26 558.315 317.892 553.691 317.892Z" fill="#00F19D"/>
<path d="M599.26 317.484V293.684H604.496V304.088L614.084 293.684H620.51L610.786 303.782L620.918 317.484H614.628L607.25 307.352L604.496 310.208V317.484H599.26Z" fill="#00F19D"/>
<path d="M663.85 317.824C660.212 317.824 656.608 316.6 653.752 314.016L656.846 310.31C659.022 312.078 661.232 313.2 663.952 313.2C666.128 313.2 667.386 312.35 667.386 310.956V310.888C667.386 309.562 666.57 308.848 662.592 307.862C657.764 306.672 654.704 305.278 654.704 300.586V300.518C654.704 296.2 658.138 293.344 663.034 293.344C666.536 293.344 669.426 294.432 671.874 296.37L669.154 300.314C667.012 298.852 665.006 297.968 662.966 297.968C660.926 297.968 659.906 298.852 659.906 300.042V300.11C659.906 301.708 660.926 302.15 665.04 303.238C669.868 304.53 672.588 306.23 672.588 310.378V310.446C672.588 315.172 668.984 317.824 663.85 317.824Z" fill="#00F19D"/>
<path d="M720.312 317.892C712.968 317.892 707.698 312.418 707.698 305.652V305.584C707.698 298.818 713.036 293.276 720.38 293.276C727.724 293.276 732.994 298.75 732.994 305.516V305.584C732.994 312.35 727.656 317.892 720.312 317.892ZM720.38 313.064C724.596 313.064 727.52 309.732 727.52 305.652V305.584C727.52 301.504 724.528 298.104 720.312 298.104C716.096 298.104 713.172 301.436 713.172 305.516V305.584C713.172 309.664 716.164 313.064 720.38 313.064Z" fill="#00F19D"/>
<path d="M769.259 317.484V293.684H774.087L785.239 308.338V293.684H790.407V317.484H785.953L774.427 302.354V317.484H769.259Z" fill="#00F19D"/>
<path d="M28.4529 23.8V4.828H21.2109V0H40.9309V4.828H33.6889V23.8H28.4529Z" fill="#00F19D"/>
<path d="M76.5778 23.8V0H81.8138V9.418H91.4698V0H96.7058V23.8H91.4698V14.246H81.8138V23.8H76.5778Z" fill="#00F19D"/>
<path d="M134.03 23.8V0H151.982V4.658H139.232V9.486H150.452V14.144H139.232V19.142H152.152V23.8H134.03Z" fill="#00F19D"/>
<path d="M95.8799 60.4141C127.5 60.4141 149.175 69.849 168.3 86.1689L139.23 121.359C126.225 110.394 114.24 104.529 96.1348 104.529C70.6349 104.529 50.4902 125.949 50.4902 153.234V153.744C50.4903 182.814 70.6355 203.469 98.9404 203.469C111.18 203.469 120.36 200.919 127.5 196.074V174.399H92.5654V138.189H174.42V218.259C155.295 234.324 129.795 246.054 96.9004 246.054C41.0554 246.054 3.46085e-05 208.059 0 153.744V153.234C0 101.214 40.7999 60.4141 95.8799 60.4141ZM293.901 63.9844C321.441 63.9844 340.056 71.1244 352.041 83.1094C362.496 93.5643 367.852 107.589 367.852 124.674V125.184C367.852 152.723 353.572 170.829 331.132 180.264L373.717 242.484H316.852L280.896 188.424H258.967V242.484H209.496V63.9844H293.901ZM451.173 242.484H401.703V63.9844H451.173V242.484ZM540.971 199.134H627.416V242.484H491.501V63.9844H540.971V199.134ZM706.003 199.134H792.448V242.484H656.533V63.9844H706.003V199.134ZM283.606 85.7998C288.398 95.5702 286.144 117.344 279.661 114.553C274.475 112.319 277.5 102.27 279.661 97.5244C271.769 103.554 269.232 112.878 268.95 116.786C268.499 113.883 265.379 110.365 263.876 108.97C265.285 112.04 264.722 119.578 262.467 124.882C260.663 129.125 261.715 134.466 262.467 136.606C258.408 132.586 257.769 122.834 257.957 118.461C245.837 144.423 265.004 150.564 274.023 149.727C264.553 141.687 269.702 124.416 273.46 116.786C270.754 135.768 275.526 144.422 278.251 146.377C275.714 140.794 278.252 131.023 283.325 124.882C287.384 119.969 289.526 110.738 290.09 106.736C292.345 113.994 284.453 134.095 284.734 137.724C285.016 141.352 287.9 143.52 291.217 140.235C293.754 137.723 293.66 129.162 292.908 124.882C301.251 138.281 295.633 147.028 291.781 149.727C294.976 149.913 302.887 149.001 308.975 143.864C315.063 138.728 313.015 126.65 311.229 121.253C309.426 131.973 305.216 136.7 303.337 137.724C309.876 121.868 303.996 109.901 300.237 105.899C302.492 114.609 300.049 122.183 298.546 124.882C298.546 100.763 288.586 88.7775 283.606 85.7998Z" fill="#00F19D"/>
</svg>
