<svg width="194" height="80" viewBox="0 0 194 80" fill="none" xmlns="http://www.w3.org/2000/svg">
<path d="M7.03125 76.7185L9.63174 71.224H10.235L12.8355 76.7185H12.1426L11.4741 75.2767H8.36818L7.69156 76.7185H7.03125ZM8.62089 74.7234H11.2214L9.92522 71.941L8.62089 74.7234ZM22.3253 76.7185V71.8319H20.4014V71.263H24.893V71.8319H22.9693V76.7185H22.3253ZM43.6707 76.7185V71.263H44.3147V76.1496H47.5266V76.7185H43.6707ZM55.7784 76.7185L58.3789 71.224H58.9821L61.5826 76.7185H60.8897L60.2212 75.2767H57.1153L56.4387 76.7185H55.7784ZM57.368 74.7234H59.9685L58.6723 71.941L57.368 74.7234ZM70.2892 76.7185V71.263H70.9332V74.5207L74.2103 71.263H75.05L72.5962 73.6478L75.1478 76.7185H74.3408L72.1479 74.0765L70.9332 75.2533V76.7185H70.2892ZM83.73 76.7185V71.263H87.8549V71.8241H84.374V73.6868H87.488V74.2479H84.374V76.1574H87.8956V76.7185H83.73ZM108.005 76.7965C107.149 76.7965 106.602 76.3912 106.244 75.8301L106.708 75.4482C107.059 75.9548 107.418 76.2275 108.013 76.2275C108.657 76.2275 109.129 75.7833 109.129 74.9182V71.263H109.782V74.9104C109.782 75.5573 109.586 76.0327 109.26 76.3445C108.934 76.6484 108.518 76.7965 108.005 76.7965ZM118.189 76.7185L120.79 71.224H121.393L123.993 76.7185H123.3L122.632 75.2767H119.526L118.849 76.7185H118.189ZM119.779 74.7234H122.379L121.083 71.941L119.779 74.7234ZM134.974 76.8121C133.328 76.8121 132.113 75.5729 132.113 74.0063V73.9908C132.113 72.4476 133.328 71.1694 134.999 71.1694C136.034 71.1694 136.662 71.5124 137.224 72.0345L136.784 72.4866C136.295 72.0501 135.773 71.7384 134.991 71.7384C133.727 71.7384 132.781 72.7204 132.781 73.9752V73.9908C132.781 75.2533 133.727 76.2431 134.991 76.2431C135.773 76.2431 136.287 75.9548 136.833 75.456L137.257 75.8534C136.67 76.4302 136.001 76.8121 134.974 76.8121ZM145.997 76.7185V71.263H146.641V74.5207L149.918 71.263H150.758L148.304 73.6478L150.856 76.7185H150.049L147.856 74.0765L146.641 75.2533V76.7185H145.997ZM161.315 76.7965C160.402 76.7965 159.668 76.5159 158.983 75.9236L159.383 75.4716C159.978 75.9937 160.549 76.2431 161.339 76.2431C162.114 76.2431 162.611 75.8534 162.611 75.3157V75.3001C162.611 74.7935 162.326 74.5129 161.127 74.2635C159.815 73.9908 159.212 73.5855 159.212 72.6892V72.6736C159.212 71.8241 160.002 71.185 161.087 71.185C161.926 71.185 162.505 71.411 163.092 71.8553L162.717 72.3307C162.187 71.9176 161.657 71.7384 161.07 71.7384C160.32 71.7384 159.856 72.1203 159.856 72.6191V72.6346C159.856 73.149 160.141 73.4452 161.405 73.6946C162.676 73.9674 163.263 74.4038 163.263 75.2377V75.2533C163.263 76.1886 162.448 76.7965 161.315 76.7965ZM174.804 76.8121C173.067 76.8121 171.901 75.5105 171.901 74.0063V73.9908C171.901 72.4866 173.083 71.1694 174.82 71.1694C176.556 71.1694 177.722 72.471 177.722 73.9752V73.9908C177.722 75.4949 176.54 76.8121 174.804 76.8121ZM174.82 76.2431C176.124 76.2431 177.054 75.2455 177.054 74.0063V73.9908C177.054 72.7516 176.108 71.7384 174.804 71.7384C173.499 71.7384 172.57 72.736 172.57 73.9752V73.9908C172.57 75.23 173.516 76.2431 174.82 76.2431ZM186.662 76.7185V71.263H187.265L190.86 75.6352V71.263H191.488V76.7185H190.974L187.289 72.245V76.7185H186.662Z" fill="#D7C3A4"/>
<path d="M13.7132 10V4.62571H12V4H16V4.62571H14.2868V10H13.7132Z" fill="#D7C3A4"/>
<path d="M21 10V4H21.7028V6.66571H25.2972V4H26V10H25.2972V7.3H21.7028V10H21Z" fill="#D7C3A4"/>
<path d="M31 10V4H34.9609V4.61714H31.6184V6.66571H34.6086V7.28286H31.6184V9.38286H35V10H31Z" fill="#D7C3A4"/>
<path d="M25.373 17.791C32.9543 17.791 38.1509 19.9543 42.7363 23.6953L35.7666 31.7617C32.6486 29.2484 29.7752 27.9034 25.4346 27.9033C19.3206 27.9033 14.4902 32.8139 14.4902 39.0684V39.1846C14.4902 45.8481 19.32 50.5829 26.1064 50.583C29.0409 50.583 31.2422 49.9991 32.9541 48.8887V43.9199H24.5781V35.6191H44.2041V53.9736C39.6186 57.6561 33.5042 60.3447 25.6172 60.3447C12.2277 60.3446 2.38477 51.6349 2.38477 39.1846V39.0684C2.38477 27.144 12.1668 17.791 25.373 17.791ZM72.8516 18.6094C79.4543 18.6094 83.9174 20.2461 86.791 22.9932C89.2978 25.3897 90.582 28.6052 90.582 32.5215V32.6387C90.5819 37.4322 88.6067 40.9772 85.3008 43.3535V43.6973H84.8008C83.8818 44.3019 82.8709 44.8244 81.7783 45.2637L91.9883 59.5264H78.3545L69.7334 47.1348H64.4756V59.5264H52.6143V18.6094H72.8516ZM110.56 59.5264H98.6982V18.6094H110.56V59.5264ZM132.09 49.5898H152.816V59.5264H120.229V18.6094H132.09V49.5898ZM171.659 49.5898H192.386V59.5264H159.798V18.6094H171.659V49.5898ZM71.5801 23.6104C72.7288 25.8501 72.1879 30.8412 70.6338 30.2012C69.3907 29.689 70.1157 27.3855 70.6338 26.2979C68.7418 27.6797 68.1342 29.8167 68.0664 30.7129C67.9581 30.0473 67.2099 29.2409 66.8496 28.9209C67.1874 29.6248 67.0522 31.3526 66.5117 32.5684C66.0792 33.541 66.3314 34.7663 66.5117 35.2568C65.5385 34.3353 65.3856 32.0993 65.4307 31.0967C62.5248 37.0477 67.1197 38.4556 69.2822 38.2637C67.012 36.4206 68.2462 32.4618 69.1475 30.7129C68.4987 35.0637 69.6427 37.0479 70.2959 37.4961C69.6877 36.2163 70.2962 33.9762 71.5127 32.5684C72.4858 31.4421 72.9995 29.3263 73.1348 28.4092C73.6752 30.0729 71.783 34.6808 71.8506 35.5127C71.9184 36.3443 72.6101 36.8408 73.4053 36.0879C74.0132 35.5114 73.9908 33.5495 73.8105 32.5684C75.8109 35.64 74.4636 37.6452 73.54 38.2637C74.3058 38.3063 76.2024 38.0972 77.6621 36.9199C79.1219 35.7425 78.6313 32.9746 78.2031 31.7373C77.7706 34.1944 76.761 35.2782 76.3105 35.5127C77.8784 31.8781 76.4684 29.1352 75.5674 28.2178C76.1078 30.2138 75.5227 31.9496 75.1621 32.5684C75.162 27.04 72.7738 24.293 71.5801 23.6104Z" fill="#D7C3A4"/>
</svg>
