<svg width="194" height="86" viewBox="0 0 194 86" fill="none" xmlns="http://www.w3.org/2000/svg">
<path d="M7.15275 7.99981V1.1028H4.55675V0.299805H10.6177V1.1028H8.02175V7.99981H7.15275Z" fill="#E4D4BB"/>
<path d="M17.6976 7.99981V0.299805H18.5666V3.7208H23.0106V0.299805H23.8796V7.99981H23.0106V4.5348H18.5666V7.99981H17.6976Z" fill="#E4D4BB"/>
<path d="M31.555 7.99981V0.299805H37.121V1.0918H32.424V3.7208H36.626V4.5128H32.424V7.20781H37.176V7.99981H31.555Z" fill="#E4D4BB"/>
<path fill-rule="evenodd" clip-rule="evenodd" d="M23.7184 63.9998C10.0491 63.9998 0 54.7896 0 41.6234V41.4998C0 28.8899 9.98671 18.9998 23.4688 18.9998C31.2085 18.9998 36.5139 21.2869 41.1952 25.2429L34.0796 33.7732C30.8964 31.1152 27.9628 29.6935 23.5312 29.6935C17.2895 29.6935 12.3586 34.8858 12.3586 41.4998V41.6234C12.3586 48.6701 17.2895 53.677 24.2178 53.677C27.2138 53.677 29.4608 53.0589 31.2085 51.8844V46.6303H22.6573V37.8528H42.6932V57.2622C38.0119 61.1564 31.7702 63.9998 23.7184 63.9998ZM71.9389 19.8652H51.2789V63.1344H63.3878V50.03H68.7557L77.5564 63.1344H91.4754L81.0518 48.052C86.5445 45.7649 90.0398 41.3762 90.0398 34.7004V34.5767C90.0398 30.4352 88.7291 27.0355 86.17 24.5012C83.2364 21.596 78.6799 19.8652 71.9389 19.8652ZM98.3257 19.8652H110.435V63.1344H98.3257V19.8652ZM132.415 19.8652H120.306V63.1344H153.574V52.6262H132.415V19.8652ZM160.701 19.8652H172.81V52.6262H193.969V63.1344H160.701V19.8652ZM67.0733 40.6497C64.8655 40.8527 60.1739 39.3639 63.1407 33.0707C63.0947 34.1309 63.251 36.4948 64.2445 37.4692C64.0605 36.9504 63.803 35.6557 64.2445 34.6271C64.7965 33.3414 64.9344 31.5143 64.5895 30.7699C64.9574 31.1083 65.721 31.9609 65.8313 32.6647C65.9003 31.7173 66.5213 29.4572 68.4531 27.9955C67.9241 29.1459 67.1836 31.582 68.4531 32.1233C70.0399 32.8 70.5918 27.5218 69.419 25.1534C70.6378 25.8752 73.0756 28.7805 73.0756 34.6271C73.4435 33.973 74.0415 32.1369 73.4895 30.0256C74.4094 30.9955 75.8491 33.8963 74.2485 37.7399C74.7084 37.4918 75.7387 36.3459 76.1803 33.7474C76.6172 35.0557 77.1186 37.9835 75.6283 39.2286C74.1381 40.4737 72.2017 40.6948 71.4198 40.6497C72.3627 39.9955 73.7379 37.8752 71.6957 34.6271C71.8797 35.6647 71.9027 37.7399 71.2818 38.3489C70.4698 39.1453 69.7639 38.6196 69.6949 37.7399C69.6705 37.4281 69.8974 36.6146 70.176 35.6159C70.6834 33.7972 71.3621 31.3643 71.0058 30.2286C70.8678 31.1985 70.3435 33.4361 69.35 34.6271C68.1081 36.1158 67.4872 38.4842 68.1081 39.8376C67.4412 39.3639 66.2729 37.2662 66.9352 32.6647C66.0154 34.5143 64.7551 38.7008 67.0733 40.6497Z" fill="#E4D4BB"/>
<path d="M6.429 84.9998L9.938 77.2448H10.752L14.261 84.9998H13.326L12.424 82.9648H8.233L7.32 84.9998H6.429ZM8.574 82.1838H12.083L10.334 78.2568L8.574 82.1838Z" fill="#E4D4BB"/>
<path d="M22.3361 84.9998V78.1028H19.7401V77.2998H25.8011V78.1028H23.2051V84.9998H22.3361Z" fill="#E4D4BB"/>
<path d="M43.3068 85.1098C42.1518 85.1098 41.4148 84.5378 40.9308 83.7458L41.5578 83.2068C42.0308 83.9218 42.5148 84.3068 43.3178 84.3068C44.1868 84.3068 44.8248 83.6798 44.8248 82.4588V77.2998H45.7048V82.4478C45.7048 83.3608 45.4408 84.0318 45.0008 84.4718C44.5608 84.9008 43.9998 85.1098 43.3068 85.1098Z" fill="#E4D4BB"/>
<path d="M52.3196 84.9998L55.8286 77.2448H56.6426L60.1516 84.9998H59.2166L58.3146 82.9648H54.1236L53.2106 84.9998H52.3196ZM54.4646 82.1838H57.9736L56.2246 78.2568L54.4646 82.1838Z" fill="#E4D4BB"/>
<path d="M70.2389 85.1318C68.0169 85.1318 66.3779 83.3828 66.3779 81.1718V81.1498C66.3779 78.9718 68.0169 77.1678 70.2719 77.1678C71.6689 77.1678 72.5159 77.6518 73.2749 78.3888L72.6809 79.0268C72.0209 78.4108 71.3169 77.9708 70.2609 77.9708C68.5559 77.9708 67.2799 79.3568 67.2799 81.1278V81.1498C67.2799 82.9318 68.5559 84.3288 70.2609 84.3288C71.3169 84.3288 72.0099 83.9218 72.7469 83.2178L73.3189 83.7788C72.5269 84.5928 71.6249 85.1318 70.2389 85.1318Z" fill="#E4D4BB"/>
<path d="M80.3829 84.9998V77.2998H81.2519V81.8978L85.6739 77.2998H86.8069L83.4959 80.6658L86.9389 84.9998H85.8499L82.8909 81.2708L81.2519 82.9318V84.9998H80.3829Z" fill="#E4D4BB"/>
<path d="M96.3218 85.1098C95.0898 85.1098 94.0998 84.7138 93.1758 83.8778L93.7148 83.2398C94.5178 83.9768 95.2878 84.3288 96.3548 84.3288C97.3998 84.3288 98.0708 83.7788 98.0708 83.0198V82.9978C98.0708 82.2828 97.6858 81.8868 96.0688 81.5348C94.2978 81.1498 93.4838 80.5778 93.4838 79.3128V79.2908C93.4838 78.0918 94.5508 77.1898 96.0138 77.1898C97.1468 77.1898 97.9278 77.5088 98.7198 78.1358L98.2138 78.8068C97.4988 78.2238 96.7838 77.9708 95.9918 77.9708C94.9798 77.9708 94.3528 78.5098 94.3528 79.2138V79.2358C94.3528 79.9618 94.7378 80.3798 96.4428 80.7318C98.1588 81.1168 98.9508 81.7328 98.9508 82.9098V82.9318C98.9508 84.2518 97.8508 85.1098 96.3218 85.1098Z" fill="#E4D4BB"/>
<path d="M109.793 85.1318C107.45 85.1318 105.877 83.2948 105.877 81.1718V81.1498C105.877 79.0268 107.472 77.1678 109.815 77.1678C112.158 77.1678 113.731 79.0048 113.731 81.1278V81.1498C113.731 83.2728 112.136 85.1318 109.793 85.1318ZM109.815 84.3288C111.575 84.3288 112.829 82.9208 112.829 81.1718V81.1498C112.829 79.4008 111.553 77.9708 109.793 77.9708C108.033 77.9708 106.779 79.3788 106.779 81.1278V81.1498C106.779 82.8988 108.055 84.3288 109.815 84.3288Z" fill="#E4D4BB"/>
<path d="M121.064 84.9998V77.2998H121.878L126.729 83.4708V77.2998H127.576V84.9998H126.883L121.911 78.6858V84.9998H121.064Z" fill="#E4D4BB"/>
<path d="M144.052 84.9998V77.2998H144.921V84.1968H149.255V84.9998H144.052Z" fill="#E4D4BB"/>
<path d="M155.659 84.9998L159.168 77.2448H159.982L163.491 84.9998H162.556L161.654 82.9648H157.463L156.55 84.9998H155.659ZM157.804 82.1838H161.313L159.564 78.2568L157.804 82.1838Z" fill="#E4D4BB"/>
<path d="M170.51 84.9998V77.2998H171.379V81.8978L175.801 77.2998H176.934L173.623 80.6658L177.066 84.9998H175.977L173.018 81.2708L171.379 82.9318V84.9998H170.51Z" fill="#E4D4BB"/>
<path d="M183.916 84.9998V77.2998H189.482V78.0918H184.785V80.7208H188.987V81.5128H184.785V84.2078H189.537V84.9998H183.916Z" fill="#E4D4BB"/>
</svg>
