<svg width="194" height="78" viewBox="0 0 194 78" fill="none" xmlns="http://www.w3.org/2000/svg">
<path d="M4.62012 77.7237L7.11718 71.8556H8.29913L10.7962 77.7237H9.4561L8.9234 76.4169H6.45962L5.92692 77.7237H4.62012ZM6.91742 75.2849H8.4656L7.69151 73.3955L6.91742 75.2849Z" fill="#D7C3A4"/>
<path d="M20.0453 77.7237V73.0792H18.2724V71.8972H23.1V73.0792H21.3271V77.7237H20.0453Z" fill="#D7C3A4"/>
<path d="M42.0631 77.7237V71.8972H43.3449V76.5584H46.2499V77.7237H42.0631Z" fill="#D7C3A4"/>
<path d="M54.4581 77.7237L56.9551 71.8556H58.1371L60.6341 77.7237H59.2941L58.7613 76.4169H56.2976L55.7649 77.7237H54.4581ZM56.7554 75.2849H58.3036L57.5295 73.3955L56.7554 75.2849Z" fill="#D7C3A4"/>
<path d="M69.2743 77.7237V71.8972H70.5561V74.4443L72.9034 71.8972H74.4765L72.096 74.3693L74.5764 77.7237H73.0366L71.2304 75.2433L70.5561 75.9425V77.7237H69.2743Z" fill="#D7C3A4"/>
<path d="M83.0953 77.7237V71.8972H87.4902V73.0376H84.3688V74.2195H87.1156V75.3598H84.3688V76.5834H87.5318V77.7237H83.0953Z" fill="#D7C3A4"/>
<path d="M107.972 77.807C107.065 77.807 106.466 77.4074 106.066 76.933L106.873 76.0341C107.206 76.4003 107.531 76.6167 107.939 76.6167C108.43 76.6167 108.721 76.3254 108.721 75.6512V71.8972H110.036V75.7094C110.036 76.4086 109.845 76.908 109.487 77.2659C109.129 77.6239 108.605 77.807 107.972 77.807Z" fill="#D7C3A4"/>
<path d="M118.377 77.7237L120.874 71.8556H122.056L124.553 77.7237H123.213L122.68 76.4169H120.217L119.684 77.7237H118.377ZM120.674 75.2849H122.223L121.449 73.3955L120.674 75.2849Z" fill="#D7C3A4"/>
<path d="M135.55 77.8236C133.835 77.8236 132.561 76.5002 132.561 74.8271V74.8105C132.561 73.1541 133.81 71.7974 135.6 71.7974C136.69 71.7974 137.364 72.1636 137.897 72.6963L137.081 73.6369C136.623 73.229 136.182 72.9793 135.591 72.9793C134.609 72.9793 133.902 73.795 133.902 74.7938V74.8105C133.902 75.8093 134.592 76.6417 135.591 76.6417C136.257 76.6417 136.665 76.3836 137.123 75.9591L137.938 76.7832C137.339 77.4241 136.682 77.8236 135.55 77.8236Z" fill="#D7C3A4"/>
<path d="M146.706 77.7237V71.8972H147.987V74.4443L150.335 71.8972H151.908L149.527 74.3693L152.008 77.7237H150.468L148.662 75.2433L147.987 75.9425V77.7237H146.706Z" fill="#D7C3A4"/>
<path d="M162.518 77.807C161.627 77.807 160.745 77.5073 160.046 76.8747L160.803 75.9675C161.336 76.4003 161.877 76.675 162.543 76.675C163.075 76.675 163.383 76.4669 163.383 76.1256V76.109C163.383 75.7843 163.184 75.6096 162.21 75.3682C161.028 75.0768 160.279 74.7356 160.279 73.5869V73.5703C160.279 72.5132 161.119 71.814 162.318 71.814C163.175 71.814 163.883 72.0804 164.482 72.5548L163.816 73.5203C163.292 73.1624 162.801 72.946 162.301 72.946C161.802 72.946 161.552 73.1624 161.552 73.4538V73.4704C161.552 73.8616 161.802 73.9698 162.809 74.2362C163.991 74.5525 164.657 74.9686 164.657 75.9841V76.0008C164.657 77.1577 163.775 77.807 162.518 77.807Z" fill="#D7C3A4"/>
<path d="M176.34 77.8236C174.542 77.8236 173.252 76.4835 173.252 74.8271V74.8105C173.252 73.1541 174.559 71.7974 176.357 71.7974C178.155 71.7974 179.445 73.1375 179.445 74.7938V74.8105C179.445 76.4669 178.138 77.8236 176.34 77.8236ZM176.357 76.6417C177.389 76.6417 178.105 75.826 178.105 74.8271V74.8105C178.105 73.8117 177.372 72.9793 176.34 72.9793C175.308 72.9793 174.592 73.795 174.592 74.7938V74.8105C174.592 75.8093 175.325 76.6417 176.357 76.6417Z" fill="#D7C3A4"/>
<path d="M188.323 77.7237V71.8972H189.505L192.235 75.4847V71.8972H193.5V77.7237H192.41L189.588 74.0198V77.7237H188.323Z" fill="#D7C3A4"/>
<path d="M6.9653 5.82649V1.18195H5.19238V0H10.02V1.18195H8.24713V5.82649H6.9653Z" fill="#D7C3A4"/>
<path d="M18.7468 5.82649V0H20.0286V2.30563H22.3925V0H23.6743V5.82649H22.3925V3.48757H20.0286V5.82649H18.7468Z" fill="#D7C3A4"/>
<path d="M32.8116 5.82649V0H37.2065V1.14033H34.0851V2.32227H36.8319V3.4626H34.0851V4.68616H37.2481V5.82649H32.8116Z" fill="#D7C3A4"/>
<path d="M23.4727 14.79C31.2132 14.7901 36.5193 17.0997 41.2012 21.0947L34.085 29.71C30.9013 27.0257 27.9673 25.5899 23.5352 25.5898C17.2925 25.5898 12.3604 30.834 12.3604 37.5137V37.6387C12.3606 44.7551 17.2925 49.8115 24.2217 49.8115C27.2179 49.8115 29.465 49.1869 31.2129 48.001V42.6943H22.6611V33.8301H42.7002V53.4326C38.0182 57.3655 31.7747 60.2363 23.7217 60.2363C10.0506 60.2361 0.000236182 50.9352 0 37.6387V37.5137C0 24.7786 9.98849 14.79 23.4727 14.79ZM71.9502 15.6641C78.6922 15.6641 83.2495 17.4117 86.1836 20.3457C88.7431 22.9052 90.0537 26.3389 90.0537 30.5215V30.6465C90.0537 37.3885 86.558 41.8211 81.0645 44.1309L91.4893 59.3623H77.5684L68.7666 46.1279H63.3975V59.3623H51.2871V15.6641H71.9502ZM110.452 59.3623H98.3408V15.6641H110.452V59.3623ZM132.436 48.75H153.598V59.3623H120.324V15.6641H132.436V48.75ZM172.837 48.75H194V59.3623H160.727V15.6641H172.837V48.75ZM69.4297 21.0049C70.6026 23.3968 70.0509 28.7271 68.4639 28.0439C67.1942 27.4972 67.9348 25.0368 68.4639 23.875C66.5318 25.3512 65.9108 27.6341 65.8418 28.5908C65.7314 27.8801 64.9676 27.0185 64.5996 26.6768C64.9446 27.4285 64.8069 29.2738 64.2549 30.5723C63.8133 31.611 64.0709 32.9183 64.2549 33.4424C63.2612 32.4583 63.1044 30.0707 63.1504 29C60.1832 35.3557 64.8759 36.8593 67.084 36.6543C64.7657 34.6861 66.0263 30.4588 66.9463 28.5908C66.284 33.2378 67.4521 35.3566 68.1191 35.835C67.4981 34.4681 68.1193 32.0758 69.3613 30.5723C70.3549 29.3694 70.8786 27.1094 71.0166 26.1299C71.5686 27.9066 69.6373 32.827 69.7061 33.7158C69.7751 34.6042 70.4809 35.1353 71.293 34.3311C71.914 33.716 71.891 31.6202 71.707 30.5723C73.7495 33.8526 72.3737 35.9937 71.4307 36.6543C72.2127 36.6999 74.1501 36.4772 75.6406 35.2197C77.131 33.9622 76.6294 31.0048 76.1924 29.6836C75.7508 32.3079 74.7198 33.4652 74.2598 33.7158C75.8606 29.8341 74.421 26.9044 73.501 25.9248C74.053 28.057 73.4549 29.9116 73.0869 30.5723C73.0869 24.6676 70.6487 21.7339 69.4297 21.0049Z" fill="#D7C3A4"/>
</svg>
