<svg width="193" height="114" viewBox="0 0 193 114" fill="none" xmlns="http://www.w3.org/2000/svg">
<path d="M7.091 12V5.103H4.495V4.3H10.556V5.103H7.96V12H7.091ZM17.6359 12V4.3H18.5049V7.721H22.9489V4.3H23.8179V12H22.9489V8.535H18.5049V12H17.6359ZM31.4933 12V4.3H37.0593V5.092H32.3623V7.721H36.5643V8.513H32.3623V11.208H37.1143V12H31.4933Z" fill="#E4D4BB"/>
<path fill-rule="evenodd" clip-rule="evenodd" d="M23.3553 68C9.89529 68 0 58.7898 0 45.6236V45.5C0 32.8901 9.83383 23 23.1095 23C30.7307 23 35.9549 25.2871 40.5645 29.2431L33.5579 37.7733C30.4234 35.1154 27.5347 33.6937 23.171 33.6937C17.0248 33.6937 12.1694 38.886 12.1694 45.5V45.6236C12.1694 52.6703 17.0248 57.6772 23.847 57.6772C26.7972 57.6772 29.0098 57.0591 30.7307 55.8846V50.6305H22.3105V41.853H42.0396V61.2624C37.43 65.1566 31.2839 68 23.3553 68ZM70.8376 23.8654H50.4939V67.1346H62.4174V54.0302H67.7031L76.3692 67.1346H90.0751L79.811 52.0522C85.2196 49.7651 88.6615 45.3764 88.6615 38.7006V38.5769C88.6615 34.4354 87.3708 31.0357 84.8509 28.5014C81.9622 25.5962 77.4755 23.8654 70.8376 23.8654ZM96.8205 23.8654H108.744V67.1346H96.8205V23.8654ZM130.388 23.8654H118.464V67.1346H151.223V56.6264H130.388V23.8654ZM158.241 23.8654H170.165V56.6264H191V67.1346H158.241V23.8654ZM66.0465 44.6498C63.8725 44.8529 59.2528 43.3641 62.1741 37.0709C62.1288 38.131 62.2828 40.495 63.261 41.4694C63.0799 40.9506 62.8262 39.6559 63.261 38.6273C63.8045 37.3416 63.9404 35.5145 63.6007 34.7701C63.9631 35.1085 64.7149 35.9611 64.8236 36.6649C64.8915 35.7175 65.5029 33.4574 67.4052 31.9957C66.8843 33.1461 66.1551 35.5822 67.4052 36.1235C68.9677 36.8002 69.5112 31.522 68.3563 29.1536C69.5565 29.8754 71.9569 32.7807 71.9569 38.6273C72.3193 37.9732 72.908 36.1371 72.3645 34.0258C73.2704 34.9957 74.688 37.8965 73.1118 41.7401C73.5648 41.4919 74.5793 40.3461 75.0141 37.7476C75.4443 39.0559 75.938 41.9837 74.4706 43.2288C73.0032 44.4739 71.0964 44.695 70.3264 44.6498C71.2549 43.9957 72.6091 41.8754 70.5982 38.6273C70.7794 39.6649 70.802 41.7401 70.1906 42.3491C69.3911 43.1455 68.696 42.6198 68.628 41.7401C68.6039 41.4282 68.8274 40.6148 69.1017 39.6161C69.6013 37.7974 70.2697 35.3645 69.9188 34.2288C69.783 35.1987 69.2666 37.4363 68.2883 38.6273C67.0655 40.116 66.4541 42.4844 67.0655 43.8378C66.4088 43.3641 65.2584 41.2664 65.9106 36.6649C65.0048 38.5145 63.7639 42.701 66.0465 44.6498Z" fill="#E4D4BB"/>
<path d="M4.429 89L7.938 81.245H8.752L12.261 89H11.326L10.424 86.965H6.233L5.32 89H4.429ZM6.574 86.184H10.083L8.334 82.257L6.574 86.184ZM20.3361 89V82.103H17.7401V81.3H23.8011V82.103H21.2051V89H20.3361ZM41.3068 89.11C40.1518 89.11 39.4148 88.538 38.9308 87.746L39.5578 87.207C40.0308 87.922 40.5148 88.307 41.3178 88.307C42.1868 88.307 42.8248 87.68 42.8248 86.459V81.3H43.7048V86.448C43.7048 87.361 43.4408 88.032 43.0008 88.472C42.5608 88.901 41.9998 89.11 41.3068 89.11ZM50.3196 89L53.8286 81.245H54.6426L58.1516 89H57.2166L56.3146 86.965H52.1236L51.2106 89H50.3196ZM52.4646 86.184H55.9736L54.2246 82.257L52.4646 86.184ZM68.2389 89.132C66.0169 89.132 64.3779 87.383 64.3779 85.172V85.15C64.3779 82.972 66.0169 81.168 68.2719 81.168C69.6689 81.168 70.5159 81.652 71.2749 82.389L70.6809 83.027C70.0209 82.411 69.3169 81.971 68.2609 81.971C66.5559 81.971 65.2799 83.357 65.2799 85.128V85.15C65.2799 86.932 66.5559 88.329 68.2609 88.329C69.3169 88.329 70.0099 87.922 70.7469 87.218L71.3189 87.779C70.5269 88.593 69.6249 89.132 68.2389 89.132ZM78.3829 89V81.3H79.2519V85.898L83.6739 81.3H84.8069L81.4959 84.666L84.9389 89H83.8499L80.8909 85.271L79.2519 86.932V89H78.3829ZM94.3218 89.11C93.0898 89.11 92.0998 88.714 91.1758 87.878L91.7148 87.24C92.5178 87.977 93.2878 88.329 94.3548 88.329C95.3998 88.329 96.0708 87.779 96.0708 87.02V86.998C96.0708 86.283 95.6858 85.887 94.0688 85.535C92.2978 85.15 91.4838 84.578 91.4838 83.313V83.291C91.4838 82.092 92.5508 81.19 94.0138 81.19C95.1468 81.19 95.9278 81.509 96.7198 82.136L96.2138 82.807C95.4988 82.224 94.7838 81.971 93.9918 81.971C92.9798 81.971 92.3528 82.51 92.3528 83.214V83.236C92.3528 83.962 92.7378 84.38 94.4428 84.732C96.1588 85.117 96.9508 85.733 96.9508 86.91V86.932C96.9508 88.252 95.8508 89.11 94.3218 89.11ZM107.793 89.132C105.45 89.132 103.877 87.295 103.877 85.172V85.15C103.877 83.027 105.472 81.168 107.815 81.168C110.158 81.168 111.731 83.005 111.731 85.128V85.15C111.731 87.273 110.136 89.132 107.793 89.132ZM107.815 88.329C109.575 88.329 110.829 86.921 110.829 85.172V85.15C110.829 83.401 109.553 81.971 107.793 81.971C106.033 81.971 104.779 83.379 104.779 85.128V85.15C104.779 86.899 106.055 88.329 107.815 88.329ZM119.064 89V81.3H119.878L124.729 87.471V81.3H125.576V89H124.883L119.911 82.686V89H119.064ZM142.052 89V81.3H142.921V88.197H147.255V89H142.052ZM153.659 89L157.168 81.245H157.982L161.491 89H160.556L159.654 86.965H155.463L154.55 89H153.659ZM155.804 86.184H159.313L157.564 82.257L155.804 86.184ZM168.51 89V81.3H169.379V85.898L173.801 81.3H174.934L171.623 84.666L175.066 89H173.977L171.018 85.271L169.379 86.932V89H168.51ZM181.916 89V81.3H187.482V82.092H182.785V84.721H186.987V85.513H182.785V88.208H187.537V89H181.916Z" fill="#E4D4BB"/>
</svg>
