<svg width="809" height="345" viewBox="0 0 809 345" fill="none" xmlns="http://www.w3.org/2000/svg">
<path d="M106.845 259.255C51 259.255 9.945 221.26 9.945 166.945V166.435C9.945 114.415 50.745 73.6146 105.825 73.6146C137.445 73.6146 159.12 83.0496 178.245 99.3696L149.175 134.56C136.17 123.595 124.185 117.73 106.08 117.73C80.58 117.73 60.435 139.15 60.435 166.435V166.945C60.435 196.015 80.58 216.67 108.885 216.67C121.125 216.67 130.305 214.12 137.445 209.275V187.6H102.51V151.39H184.365V231.46C165.24 247.525 139.74 259.255 106.845 259.255ZM219.441 255.685V77.1846H303.846C331.386 77.1846 350.001 84.3246 361.986 96.3096C372.441 106.765 377.796 120.79 377.796 137.875V138.385C377.796 165.925 363.516 184.03 341.076 193.465L383.661 255.685H326.796L290.841 201.625H268.911V255.685H219.441ZM268.911 162.865H301.806C318.381 162.865 328.326 154.705 328.326 141.7V141.19C328.326 126.91 317.871 119.77 301.551 119.77H268.911V162.865ZM411.648 255.685V77.1846H461.118V255.685H411.648ZM501.446 255.685V77.1846H550.916V212.335H637.361V255.685H501.446ZM666.478 255.685V77.1846H715.948V212.335H802.393V255.685H666.478Z" fill="black"/>
<path d="M29.326 330.685L40.172 306.715H42.688L53.534 330.685H50.644L47.856 324.395H34.902L32.08 330.685H29.326ZM35.956 321.981H46.802L41.396 309.843L35.956 321.981ZM93.1135 330.685V309.367H85.0895V306.885H103.823V309.367H95.7995V330.685H93.1135ZM182.14 330.685V306.885H184.826V328.203H198.222V330.685H182.14ZM232.638 330.685L243.484 306.715H246L256.846 330.685H253.956L251.168 324.395H238.214L235.392 330.685H232.638ZM239.268 321.981H250.114L244.708 309.843L239.268 321.981ZM293.159 330.685V306.885H295.845V321.097L309.513 306.885H313.015L302.781 317.289L313.423 330.685H310.057L300.911 319.159L295.845 324.293V330.685H293.159ZM349.217 330.685V306.885H366.421V309.333H351.903V317.459H364.891V319.907H351.903V328.237H366.591V330.685H349.217ZM450.46 331.025C446.89 331.025 444.612 329.257 443.116 326.809L445.054 325.143C446.516 327.353 448.012 328.543 450.494 328.543C453.18 328.543 455.152 326.605 455.152 322.831V306.885H457.872V322.797C457.872 325.619 457.056 327.693 455.696 329.053C454.336 330.379 452.602 331.025 450.46 331.025ZM492.937 330.685L503.783 306.715H506.299L517.145 330.685H514.255L511.467 324.395H498.513L495.691 330.685H492.937ZM499.567 321.981H510.413L505.007 309.843L499.567 321.981ZM562.944 331.093C556.076 331.093 551.01 325.687 551.01 318.853V318.785C551.01 312.053 556.076 306.477 563.046 306.477C567.364 306.477 569.982 307.973 572.328 310.251L570.492 312.223C568.452 310.319 566.276 308.959 563.012 308.959C557.742 308.959 553.798 313.243 553.798 318.717V318.785C553.798 324.293 557.742 328.611 563.012 328.611C566.276 328.611 568.418 327.353 570.696 325.177L572.464 326.911C570.016 329.427 567.228 331.093 562.944 331.093ZM608.918 330.685V306.885H611.604V321.097L625.272 306.885H628.774L618.54 317.289L629.182 330.685H625.816L616.67 319.159L611.604 324.293V330.685H608.918ZM672.804 331.025C668.996 331.025 665.936 329.801 663.08 327.217L664.746 325.245C667.228 327.523 669.608 328.611 672.906 328.611C676.136 328.611 678.21 326.911 678.21 324.565V324.497C678.21 322.287 677.02 321.063 672.022 319.975C666.548 318.785 664.032 317.017 664.032 313.107V313.039C664.032 309.333 667.33 306.545 671.852 306.545C675.354 306.545 677.768 307.531 680.216 309.469L678.652 311.543C676.442 309.741 674.232 308.959 671.784 308.959C668.656 308.959 666.718 310.625 666.718 312.801V312.869C666.718 315.113 667.908 316.405 673.178 317.493C678.482 318.683 680.93 320.587 680.93 324.225V324.293C680.93 328.373 677.53 331.025 672.804 331.025ZM729.062 331.093C721.82 331.093 716.958 325.415 716.958 318.853V318.785C716.958 312.223 721.888 306.477 729.13 306.477C736.372 306.477 741.234 312.155 741.234 318.717V318.785C741.234 325.347 736.304 331.093 729.062 331.093ZM729.13 328.611C734.57 328.611 738.446 324.259 738.446 318.853V318.785C738.446 313.379 734.502 308.959 729.062 308.959C723.622 308.959 719.746 313.311 719.746 318.717V318.785C719.746 324.191 723.69 328.611 729.13 328.611ZM778.519 330.685V306.885H781.035L796.029 325.959V306.885H798.647V330.685H796.505L781.137 311.169V330.685H778.519Z" fill="black"/>
<path d="M46.554 39V17.682H38.53V15.2H57.264V17.682H49.24V39H46.554ZM89.3473 39V15.2H92.0333V25.774H105.769V15.2H108.455V39H105.769V28.29H92.0333V39H89.3473ZM142.379 39V15.2H159.583V17.648H145.065V25.774H158.053V28.222H145.065V36.552H159.753V39H142.379Z" fill="black"/>
<path d="M265.5 167V115.5H337V167H265.5Z" fill="black" stroke="black" stroke-width="9"/>
<path d="M267.902 131.661C255.782 157.623 274.949 163.765 283.968 162.927C274.498 154.887 279.646 137.617 283.405 129.987C280.699 148.969 285.472 157.623 288.196 159.577C285.659 153.994 288.196 144.224 293.27 138.082C297.329 133.169 299.471 123.938 300.035 119.937C302.289 127.195 294.397 147.294 294.679 150.923C294.961 154.552 297.845 156.721 301.162 153.436C303.699 150.923 303.605 142.363 302.853 138.082C311.196 151.482 305.578 160.229 301.726 162.927C304.92 163.113 312.831 162.201 318.919 157.065C325.008 151.928 322.96 139.85 321.174 134.453C319.37 145.173 315.161 149.9 313.282 150.923C319.821 135.067 313.94 123.101 310.182 119.099C312.437 127.809 309.994 135.384 308.49 138.082C308.49 113.963 298.531 101.978 293.552 99C298.343 108.771 296.088 130.545 289.606 127.753C284.419 125.52 287.445 115.47 289.606 110.725C281.713 116.754 279.177 126.078 278.895 129.987C278.444 127.083 275.324 123.566 273.821 122.17C275.23 125.241 274.667 132.778 272.412 138.082C270.608 142.325 271.66 147.667 272.412 149.807C268.353 145.787 267.714 136.035 267.902 131.661Z" fill="white"/>
</svg>
