<svg width="19" height="18" viewBox="0 0 19 18" fill="none" xmlns="http://www.w3.org/2000/svg">
<mask id="path-1-inside-1_1322_845" fill="white">
<path fill-rule="evenodd" clip-rule="evenodd" d="M16.293 8.50025L0.50003 8.50025C0.22403 8.50025 3.01362e-05 8.72425 3.01242e-05 9.00025C3.01121e-05 9.27625 0.22403 9.50025 0.50003 9.50025L16.293 9.50025L8.64603 17.1462C8.45103 17.3422 8.45103 17.6583 8.64603 17.8543C8.84203 18.0493 9.15803 18.0493 9.35403 17.8543L18.207 9.00025L9.35403 0.14625C9.15803 -0.0487504 8.84203 -0.0487504 8.64603 0.14625C8.45103 0.34225 8.45103 0.658257 8.64603 0.854257L16.293 8.50025Z"/>
</mask>
<path fill-rule="evenodd" clip-rule="evenodd" d="M16.293 8.50025L0.50003 8.50025C0.22403 8.50025 3.01362e-05 8.72425 3.01242e-05 9.00025C3.01121e-05 9.27625 0.22403 9.50025 0.50003 9.50025L16.293 9.50025L8.64603 17.1462C8.45103 17.3422 8.45103 17.6583 8.64603 17.8543C8.84203 18.0493 9.15803 18.0493 9.35403 17.8543L18.207 9.00025L9.35403 0.14625C9.15803 -0.0487504 8.84203 -0.0487504 8.64603 0.14625C8.45103 0.34225 8.45103 0.658257 8.64603 0.854257L16.293 8.50025Z" fill="black"/>
<path d="M16.293 8.50025L16.293 9.50025L18.7075 9.50025L17.0001 7.7931L16.293 8.50025ZM16.293 9.50025L17.0001 10.2074L18.7075 8.50025L16.293 8.50025L16.293 9.50025ZM8.64603 17.1462L7.93897 16.4391L7.93712 16.441L8.64603 17.1462ZM8.64603 17.8543L7.93711 18.5596L7.94073 18.5632L8.64603 17.8543ZM9.35403 17.8543L10.0593 18.5632L10.0612 18.5613L9.35403 17.8543ZM18.207 9.00025L18.9142 9.70732L19.6212 9.00025L18.9142 8.29319L18.207 9.00025ZM9.35403 0.14625L10.0612 -0.560819L10.0593 -0.562663L9.35403 0.14625ZM8.64603 0.14625L7.94073 -0.562673L7.93712 -0.559046L8.64603 0.14625ZM8.64603 0.854257L7.93712 1.55956L7.93897 1.56141L8.64603 0.854257ZM16.293 8.50025L16.293 7.50025L0.50003 7.50025L0.50003 8.50025L0.50003 9.50025L16.293 9.50025L16.293 8.50025ZM0.50003 8.50025L0.50003 7.50025C-0.328255 7.50025 -0.99997 8.17197 -0.99997 9.00025L3.01242e-05 9.00025L1.00003 9.00025C1.00003 9.27654 0.776315 9.50025 0.50003 9.50025L0.50003 8.50025ZM3.01242e-05 9.00025L-0.99997 9.00025C-0.99997 9.82854 -0.328255 10.5003 0.50003 10.5003L0.50003 9.50025L0.50003 8.50025C0.776315 8.50025 1.00003 8.72397 1.00003 9.00025L3.01242e-05 9.00025ZM0.50003 9.50025L0.50003 10.5003L16.293 10.5003L16.293 9.50025L16.293 8.50025L0.50003 8.50025L0.50003 9.50025ZM16.293 9.50025L15.586 8.7931L7.93897 16.4391L8.64603 17.1462L9.35309 17.8534L17.0001 10.2074L16.293 9.50025ZM8.64603 17.1462L7.93712 16.441C7.354 17.0271 7.354 17.9734 7.93712 18.5596L8.64603 17.8543L9.35494 17.149C9.54806 17.3431 9.54806 17.6574 9.35494 17.8515L8.64603 17.1462ZM8.64603 17.8543L7.94073 18.5632C8.52684 19.1463 9.47322 19.1463 10.0593 18.5632L9.35403 17.8543L8.64873 17.1453C8.84284 16.9522 9.15722 16.9522 9.35133 17.1453L8.64603 17.8543ZM9.35403 17.8543L10.0612 18.5613L18.9142 9.70732L18.207 9.00025L17.4999 8.29319L8.64688 17.1472L9.35403 17.8543ZM18.207 9.00025L18.9142 8.29319L10.0612 -0.560817L9.35403 0.14625L8.64688 0.853316L17.4999 9.70732L18.207 9.00025ZM9.35403 0.14625L10.0593 -0.562663C9.47322 -1.14578 8.52684 -1.14578 7.94074 -0.562663L8.64603 0.14625L9.35133 0.855163C9.15722 1.04828 8.84284 1.04828 8.64874 0.855163L9.35403 0.14625ZM8.64603 0.14625L7.93712 -0.559046C7.354 0.0270599 7.354 0.973447 7.93712 1.55955L8.64603 0.854257L9.35494 0.148961C9.54806 0.343068 9.54806 0.657439 9.35494 0.851546L8.64603 0.14625ZM8.64603 0.854257L7.93897 1.56141L15.586 9.20741L16.293 8.50025L17.0001 7.7931L9.35309 0.147104L8.64603 0.854257Z" fill="#F0DBBA" mask="url(#path-1-inside-1_1322_845)"/>
</svg>
